<svg width="14" height="7" viewBox="0 0 14 7" fill="none" xmlns="http://www.w3.org/2000/svg">
<path id="SF Symbol" d="M7 7C6.79839 7 6.62097 6.93558 6.46774 6.79959L0.217741 1.12372C0.0725804 1.00204 -8.80272e-07 0.844581 -8.78053e-07 0.658487C-8.73614e-07 0.286299 0.314515 -1.63198e-07 0.733871 -1.58197e-07C0.943547 -1.55697e-07 1.12097 0.0787323 1.25806 0.193251L7 5.40389L12.7419 0.193252C12.879 0.0787325 13.0645 -1.11555e-08 13.2661 -8.75132e-09C13.6855 -3.75057e-09 14 0.286299 14 0.658487C14 0.844581 13.9274 1.00205 13.7903 1.12372L7.53226 6.79959C7.3871 6.93558 7.20161 7 7 7Z" fill="#3CC39E"/>
</svg>
