<svg width="18" height="9" viewBox="0 0 18 9" fill="none" xmlns="http://www.w3.org/2000/svg">
<path id="SF Symbol" d="M9 9C8.74078 9 8.51267 8.91718 8.31567 8.74233L0.279951 1.44479C0.093315 1.28834 -2.00172e-06 1.08589 -2.00458e-06 0.846626C-2.01028e-06 0.368098 0.404375 2.09826e-07 0.943546 2.03396e-07C1.21313 2.00181e-07 1.44124 0.101227 1.61751 0.248467L9 6.94785L16.3825 0.248467C16.5588 0.101227 16.7972 1.43428e-08 17.0565 1.12517e-08C17.5956 4.82216e-09 18 0.368098 18 0.846625C18 1.08589 17.9067 1.28834 17.7304 1.44479L9.68433 8.74233C9.49769 8.91718 9.25922 9 9 9Z" fill="#201E2E"/>
</svg>
