<svg width="12" height="6" viewBox="0 0 12 6" fill="none" xmlns="http://www.w3.org/2000/svg">
<path id="SF Symbol" d="M6 6C5.82719 6 5.67511 5.94479 5.54378 5.82822L0.186635 0.96319C0.0622111 0.858896 -8.90758e-07 0.723926 -8.88856e-07 0.564417C-8.85051e-07 0.245399 0.269584 -1.39884e-07 0.629031 -1.35597e-07C0.808755 -1.33454e-07 0.960829 0.0674847 1.07834 0.165644L6 4.6319L10.9217 0.165644C11.0392 0.0674848 11.1982 -9.56189e-09 11.371 -7.50113e-09C11.7304 -3.21477e-09 12 0.245399 12 0.564417C12 0.723927 11.9378 0.858896 11.8203 0.96319L6.45622 5.82822C6.3318 5.94479 6.17281 6 6 6Z" fill="#201E2E"/>
</svg>
