<svg width="20" height="20" viewBox="10 10 20 20" fill="none" xmlns="http://www.w3.org/2000/svg">
<path id="SF Symbol" d="M12 19.9869C12 20.4925 12.2836 20.8499 12.8765 20.9458C13.942 21.1114 14.3631 21.6605 14.3631 23.0639V25.5133C14.3631 27.8843 15.4286 29 17.7487 29C17.8861 29 18.0322 28.9738 18.1353 28.939C18.4017 28.8257 18.5478 28.6077 18.5478 28.3201C18.5478 27.9801 18.4017 27.8058 18.101 27.7274C18.015 27.7099 17.9291 27.6925 17.826 27.6838C16.3824 27.5792 15.8582 26.9516 15.8582 25.339V22.445C15.8582 20.9719 15.0934 20.1525 13.753 20.0218C13.7272 20.0218 13.7272 19.9869 13.753 19.9869C15.0934 19.8562 15.8582 19.0368 15.8582 17.5637V14.661C15.8582 13.0397 16.3824 12.4295 17.826 12.3249C17.9635 12.3162 18.0838 12.2988 18.1697 12.2639C18.4189 12.1768 18.5478 11.985 18.5478 11.6799C18.5478 11.3748 18.3931 11.1656 18.101 11.061C17.9721 11.0174 17.8346 11 17.6627 11C15.42 11 14.3631 12.1332 14.3631 14.4867V16.9448C14.3631 18.3307 13.942 18.8886 12.8765 19.0542C12.2836 19.1501 12 19.4901 12 19.9869ZM28 19.9869C28 19.4901 27.7078 19.1501 27.1149 19.0542C26.058 18.8886 25.6284 18.3307 25.6284 16.9448V14.4867C25.6284 12.1332 24.5714 11 22.3287 11C22.1568 11 22.0279 11.0174 21.899 11.061C21.5897 11.1656 21.4436 11.3748 21.4436 11.6799C21.4436 11.985 21.5897 12.168 21.8303 12.2639C21.9162 12.2988 22.0279 12.3162 22.1654 12.3249C23.6004 12.3947 24.1418 13.0397 24.1418 14.661V17.5637C24.1418 19.0455 24.9066 19.9869 26.2385 19.9869C26.2642 19.9869 26.2642 20.0218 26.2385 20.0218C24.9066 20.0218 24.1418 20.9632 24.1418 22.445V25.339C24.1418 26.9516 23.609 27.5792 22.1654 27.6838C22.0623 27.6925 21.985 27.7099 21.899 27.7274C21.5983 27.7884 21.4436 27.9801 21.4436 28.3201C21.4436 28.6252 21.6069 28.8518 21.8647 28.939C21.9678 28.9738 22.1053 29 22.2427 29C24.5628 29 25.6284 27.8843 25.6284 25.5133V23.0639C25.6284 21.6605 26.058 21.1114 27.1149 20.9458C27.7078 20.8499 28 20.4925 28 19.9869Z" fill="white"/>
</svg>
