<svg width="16" height="16" viewBox="0 0 16 16" fill="none" xmlns="http://www.w3.org/2000/svg">
<g id="Group 30">
<rect id="Rectangle 17" x="0.794823" y="0.794823" width="14.4104" height="14.4104" rx="2.38447" fill="#3CC39E" stroke="#3CC39E" stroke-width="1.58965"/>
<path id="SF Symbol" d="M8.2197 11.5963L8.21971 11.5963L8.22106 11.5941L12.9013 4.1643L12.9013 4.16431L12.9027 4.16199C13.0086 3.99002 13.0659 3.83219 13.0659 3.6536C13.0659 3.45795 13.0012 3.27338 12.8658 3.13685C12.7302 3.00011 12.546 2.93428 12.3502 2.93428C12.2217 2.93428 12.093 2.95548 11.9717 3.02795C11.8538 3.09836 11.7698 3.20137 11.6998 3.31322L11.6994 3.31387L7.45545 10.1321L5.38255 7.39646C5.30746 7.2912 5.21968 7.19935 5.108 7.13544C4.99198 7.06905 4.8692 7.04366 4.74303 7.04366C4.53939 7.04366 4.351 7.11499 4.21273 7.25232C4.07446 7.38966 4.00264 7.57686 4.00264 7.77796C4.00264 7.96594 4.08162 8.15157 4.2025 8.30567C4.20261 8.30581 4.20272 8.30594 4.20283 8.30609L6.77097 11.6037C6.77124 11.604 6.77152 11.6044 6.77179 11.6047C6.85924 11.7191 6.95957 11.8195 7.08292 11.8905C7.20994 11.9635 7.34775 11.9975 7.49667 11.9975C7.80414 11.9975 8.0545 11.853 8.2197 11.5963Z" fill="white" stroke="white" stroke-width="0.529882"/>
</g>
</svg>
